<?xml version="1.0" encoding="UTF-8" standalone="no"?>
<!DOCTYPE svg PUBLIC "-//W3C//DTD SVG 1.1//EN" "http://www.w3.org/Graphics/SVG/1.1/DTD/svg11.dtd">
<svg width="100%" height="100%" viewBox="0 0 3506 2366" version="1.1" xmlns="http://www.w3.org/2000/svg" xmlns:xlink="http://www.w3.org/1999/xlink" xml:space="preserve" xmlns:serif="http://www.serif.com/" style="fill-rule:evenodd;clip-rule:evenodd;stroke-linejoin:round;stroke-miterlimit:2;">
    <g transform="matrix(1,0,0,1,-3713,0)">
        <g id="Artboard7" transform="matrix(1,0,0,1,-0.738713,0)">
            <rect x="3713.74" y="0" width="3505.41" height="2365.34" style="fill:none;"/>
            <g transform="matrix(0.934115,0,0,0.934115,4379.77,700.032)">
                <path d="M1710.56,585.92C1711.17,585.901 1711.79,585.891 1712.4,585.891L1856.22,585.891C1866.69,585.891 1875.18,577.4 1875.18,566.925L1875.18,230.817C1875.18,215.189 1881.39,200.202 1892.44,189.151C1903.49,178.101 1918.48,171.893 1934.11,171.893L1934.23,171.893C1949.86,171.893 1964.85,178.101 1975.9,189.151C1986.95,200.202 1993.16,215.189 1993.16,230.817L1993.16,801.992C1993.16,817.62 1986.95,832.607 1975.9,843.658C1964.85,854.708 1949.86,860.916 1934.23,860.916L1934.11,860.916C1918.48,860.916 1903.49,854.708 1892.44,843.658C1881.39,832.607 1875.18,817.62 1875.18,801.992L1875.18,722.833C1875.18,712.358 1866.69,703.867 1856.22,703.867L1813.19,703.867C1812.84,703.886 1812.49,703.896 1812.14,703.896L1711.43,703.896C1679.38,703.896 1653.4,677.914 1653.4,645.864L1653.4,604.886C1653.4,594.412 1661.89,585.92 1672.37,585.92C1672.37,585.92 1688.54,585.92 1710.56,585.92ZM2548.74,171.893C2571.38,171.893 2589.76,190.274 2589.76,212.914C2589.76,235.555 2571.38,253.936 2548.74,253.936C2526.1,253.936 2507.71,235.555 2507.71,212.914C2507.71,190.274 2526.1,171.893 2548.74,171.893ZM2575.19,209.485C2575.19,209.551 2575.19,209.618 2575.19,209.684C2575.19,224.284 2563.34,236.138 2548.74,236.138C2534.14,236.138 2522.28,224.284 2522.28,209.684C2522.28,209.618 2522.28,209.551 2522.28,209.485C2522.29,208.335 2521.36,207.395 2520.21,207.386C2519.07,207.378 2518.12,208.305 2518.12,209.454C2518.12,209.531 2518.12,209.607 2518.12,209.684C2518.12,226.584 2531.84,240.305 2548.74,240.305C2565.64,240.305 2579.36,226.584 2579.36,209.684C2579.36,209.607 2579.36,209.531 2579.36,209.454C2579.35,208.305 2578.41,207.378 2577.26,207.386C2576.11,207.395 2575.18,208.335 2575.19,209.485ZM2558.99,193.562C2556.68,193.562 2554.8,197.101 2554.8,201.46C2554.8,205.819 2556.68,209.358 2558.99,209.358C2561.3,209.358 2563.18,205.819 2563.18,201.46C2563.18,197.101 2561.3,193.562 2558.99,193.562ZM2538.48,193.562C2536.17,193.562 2534.29,197.101 2534.29,201.46C2534.29,205.819 2536.17,209.358 2538.48,209.358C2540.8,209.358 2542.67,205.819 2542.67,201.46C2542.67,197.101 2540.8,193.562 2538.48,193.562ZM-204.064,171.893C-188.437,171.893 -173.449,178.101 -162.399,189.151C-151.348,200.202 -145.14,215.189 -145.14,230.817L-145.14,801.992C-145.14,817.62 -151.348,832.607 -162.399,843.658C-173.449,854.708 -188.437,860.916 -204.064,860.916L-204.192,860.916C-219.819,860.916 -234.807,854.708 -245.857,843.658C-256.908,832.607 -263.116,817.62 -263.116,801.992L-263.116,230.817C-263.116,215.189 -256.908,200.202 -245.857,189.151C-234.807,178.101 -219.819,171.893 -204.192,171.893L-204.064,171.893ZM270.626,171.893C286.254,171.893 301.241,178.101 312.291,189.151C323.342,200.202 329.55,215.189 329.55,230.817L329.55,801.992C329.55,817.62 323.342,832.607 312.291,843.658C301.241,854.708 286.254,860.916 270.626,860.916L270.498,860.916C254.871,860.916 239.883,854.708 228.833,843.658C217.782,832.607 211.574,817.62 211.574,801.992L211.574,230.817C211.574,215.189 217.782,200.202 228.833,189.151C239.883,178.101 254.871,171.893 270.498,171.893L270.626,171.893ZM750.164,289.11C782.214,289.11 808.196,315.091 808.196,347.141L808.196,685.04C808.196,700.597 802.016,715.518 791.015,726.518C780.014,737.519 765.094,743.699 749.537,743.699L709.187,743.699C698.712,743.699 690.22,735.208 690.22,724.733L690.22,308.076C690.22,297.601 698.712,289.11 709.187,289.11L750.164,289.11ZM1223.05,289.11C1255.1,289.11 1281.08,315.091 1281.08,347.141L1281.08,685.04C1281.08,700.597 1274.9,715.518 1263.9,726.518C1252.9,737.519 1237.98,743.699 1222.42,743.699L1182.07,743.699C1171.6,743.699 1163.1,735.208 1163.1,724.733L1163.1,308.076C1163.1,297.601 1171.6,289.11 1182.07,289.11L1223.05,289.11ZM2113.39,726.53C2113.34,725.938 2113.31,725.339 2113.31,724.733L2113.31,308.076C2113.31,297.601 2121.8,289.11 2132.27,289.11L2173.25,289.11C2205.3,289.11 2231.28,315.091 2231.28,347.141C2231.34,348.193 2231.37,349.251 2231.37,350.316L2231.37,802.538C2231.37,835.081 2204.99,861.462 2172.44,861.462L2172.32,861.462C2139.77,861.462 2113.39,835.081 2113.39,802.538L2113.39,726.53ZM1659.68,466.82C1654.61,466.893 1649.72,464.927 1646.1,461.363C1642.48,457.798 1640.45,452.933 1640.45,447.857C1640.45,405.73 1640.45,308.076 1640.45,308.076C1640.45,297.601 1648.94,289.11 1659.41,289.11L1700.39,289.11C1732.44,289.11 1758.42,315.091 1758.42,347.141L1758.42,447.847C1758.42,458.306 1749.96,466.791 1739.5,466.813C1717.59,466.814 1681.72,466.816 1659.68,466.82ZM510.155,171.893C525.782,171.893 540.77,178.101 551.82,189.151C562.871,200.202 569.079,215.189 569.079,230.817L569.079,801.992C569.079,817.62 562.871,832.607 551.82,843.658C540.77,854.708 525.782,860.916 510.155,860.916L510.027,860.916C494.4,860.916 479.412,854.708 468.362,843.658C457.311,832.607 451.103,817.62 451.103,801.992L451.103,230.817C451.103,215.189 457.311,200.202 468.362,189.151C479.412,178.101 494.4,171.893 510.027,171.893L510.155,171.893ZM986.882,171.893C1002.51,171.893 1017.5,178.101 1028.55,189.151C1039.6,200.202 1045.81,215.189 1045.81,230.817L1045.81,801.992C1045.81,817.62 1039.6,832.607 1028.55,843.658C1017.5,854.708 1002.51,860.916 986.882,860.916L986.755,860.916C971.127,860.916 956.14,854.708 945.089,843.658C934.039,832.607 927.831,817.62 927.831,801.992L927.831,230.817C927.831,215.189 934.039,200.202 945.089,189.151C956.14,178.101 971.127,171.893 986.755,171.893L986.882,171.893ZM1460.8,171.893C1476.42,171.893 1491.41,178.101 1502.46,189.151C1513.51,200.202 1519.72,215.189 1519.72,230.817L1519.72,801.992C1519.72,817.62 1513.51,832.607 1502.46,843.658C1491.41,854.708 1476.42,860.916 1460.8,860.916L1460.67,860.916C1445.04,860.916 1430.05,854.708 1419,843.658C1407.95,832.607 1401.74,817.62 1401.74,801.992L1401.74,230.817C1401.74,215.189 1407.95,200.202 1419,189.151C1430.05,178.101 1445.04,171.893 1460.67,171.893L1460.8,171.893ZM2410.27,171.893C2429.51,171.893 2443.69,180.907 2451.94,189.151C2464.57,201.787 2469.2,216.646 2469.2,230.817L2469.2,801.992C2469.2,816.163 2464.57,831.022 2451.94,843.658C2443.69,851.902 2429.51,860.916 2410.27,860.916L2410.14,860.916C2390.91,860.916 2376.72,851.902 2368.48,843.658C2355.84,831.022 2351.22,816.163 2351.22,801.992L2351.22,230.817C2351.22,216.646 2355.84,201.787 2368.48,189.151C2376.72,180.907 2390.91,171.893 2410.14,171.893L2410.27,171.893ZM34.891,171.893C50.519,171.893 65.506,178.101 76.557,189.151C87.607,200.202 93.815,215.189 93.815,230.817L93.815,436.51C93.815,441.54 91.817,446.364 88.26,449.921C84.703,453.478 79.879,455.476 74.849,455.476L-5.194,455.476C-10.224,455.476 -15.049,453.478 -18.605,449.921C-22.162,446.364 -24.16,441.54 -24.16,436.51L-24.16,230.817C-24.16,215.189 -17.952,200.202 -6.902,189.151C4.148,178.101 19.136,171.893 34.764,171.893L34.891,171.893ZM34.764,860.916C19.136,860.916 4.148,854.708 -6.902,843.658C-17.952,832.607 -24.16,817.62 -24.16,801.992L-24.16,596.299C-24.16,591.269 -22.162,586.445 -18.605,582.888C-15.049,579.331 -10.224,577.333 -5.194,577.333L74.849,577.333C79.879,577.333 84.703,579.331 88.26,582.888C91.817,586.445 93.815,591.269 93.815,596.299L93.815,801.992C93.815,817.62 87.607,832.607 76.557,843.658C65.506,854.708 50.519,860.916 34.891,860.916L34.764,860.916Z" style="fill:white;"/>
            </g>
        </g>
    </g>
</svg>
